<svg xmlns="http://www.w3.org/2000/svg" viewBox="0 0 169.26 85.33"><defs><style>.cls-1,.cls-2{fill:none;stroke:#1b3665;stroke-width:2px;}.cls-1{stroke-miterlimit:10;}.cls-2{stroke-linejoin:round;}</style></defs><g id="Layer_2" data-name="Layer 2"><g id="Layer_1-2" data-name="Layer 1"><path class="cls-1" d="M107.78,39.45h0a24.93,24.93,0,0,1,24.93,24.93V84.33a0,0,0,0,1,0,0H82.85a0,0,0,0,1,0,0V64.39a24.93,24.93,0,0,1,24.93-24.93Z"/><path class="cls-1" d="M78.23,49.28a22.52,22.52,0,0,1,4,12.87V84.33H32.37V62.15a22.52,22.52,0,0,1,4-12.87"/><path class="cls-1" d="M150.44,49h0a17.82,17.82,0,0,1,17.82,17.82V84.33a0,0,0,0,1,0,0H132.62a0,0,0,0,1,0,0V66.78A17.82,17.82,0,0,1,150.44,49Z"/><rect class="cls-1" x="36.38" y="2.14" width="41.86" height="70.6" rx="20.93"/><path class="cls-1" d="M21.08,55.73A13,13,0,0,1,32.19,66.47a13.38,13.38,0,0,1,.14,1.8V84.33H1v-16c0-.34,0-.68,0-1a13.58,13.58,0,0,1,.47-2.78A13,13,0,0,1,13.1,55.42,34.85,34.85,0,0,1,21.08,55.73Z"/><path class="cls-1" d="M8.56,51.09H1.9v-14c0-7.61,6.61-13.78,14.76-13.78a15.27,15.27,0,0,1,10.44,4,13.32,13.32,0,0,1,4.33,9.74v14H25.2"/><rect class="cls-1" x="44.62" y="15.33" width="25.36" height="33.77" rx="12.68"/><path class="cls-1" d="M121.43,17.68a13.78,13.78,0,0,1,.1,1.71v1.54a15.06,15.06,0,1,1-30.11,0V19.39a16.11,16.11,0,0,1,.16-2.22"/><path class="cls-1" d="M116.7,8.34l-.12-.12"/><path class="cls-1" d="M139.29,28.11a11.32,11.32,0,0,0-1.46,5.58v.45a11.36,11.36,0,0,0,22.67,1"/><path class="cls-1" d="M156.4,24.91l-.31-.24"/><path class="cls-1" d="M16,31.33c5,6,10,5.78,10,5.78l.19,7.18a9.51,9.51,0,0,1-19,0V39"/><path class="cls-1" d="M18,27.33a38.22,38.22,0,0,1-2,3.72c-1.64,2.72-4.17,6.14-7,7.28-5,2-7,4-7,4"/><path class="cls-1" d="M157,24.33s-5.49,6.55-17.75,3.78L137,27.33s1-9,11-9S157,24.33,157,24.33Z"/><path class="cls-1" d="M155,26.33l5.61,8.94a15.48,15.48,0,0,0,.39-7.94c-1-4-4-4-4-4Z"/><path class="cls-1" d="M96.19,9.33c2.5,1.6,8.44,4.79,13.79,2.89,3.59-1.28,5.34-2.55,6.18-3.49a2.43,2.43,0,0,0,.31-.37,1.71,1.71,0,0,1,.11-.14,2,2,0,0,0,.4-1s-10.87-8-18-5.92c-6.3,1.81-3.69,6.32-4,7"/><path class="cls-1" d="M116.16,8.73l5.27,9,.27.46a27.35,27.35,0,0,0-.61-7.25c-.63-2.44-3.14-2.62-4.39-2.55l-.23,0"/><path class="cls-2" d="M96.19,9.25,92,17.33H91a23.64,23.64,0,0,1,.64-6.65c.49-1.75,2.12-2.22,3.41-2.33a.93.93,0,0,0,0,.13s.23.17.64.42C95.78,9,96,9.12,96.19,9.25Z"/><path class="cls-1" d="M101,27.33c3,3,9,3,11,0"/><path class="cls-1" d="M144.2,37.58c2.33,2.34,7,2.34,8.55,0"/><path class="cls-1" d="M53,37.58c2.33,2.34,7,2.34,8.55,0"/><path class="cls-1" d="M13,45.74c1.9,1.91,5.72,1.91,7,0"/><polyline class="cls-1" points="106.98 39.33 100.98 49.33 95.59 41.95"/><polyline class="cls-1" points="106.59 39.33 112.59 49.33 117.98 41.95"/><path class="cls-1" d="M141,51.85s9,7.48,18-.52"/><polyline class="cls-1" points="6.98 57.33 8.98 63.33 14.98 56.33 14.98 60.33 16.98 60.33 16.98 56.33"/><polyline class="cls-1" points="24.98 57.33 22.98 63.33 16.98 56.33 16.98 60.33 14.98 60.33 14.98 56.33"/></g></g></svg>