<svg xmlns="http://www.w3.org/2000/svg" viewBox="0 0 51.87 85.33"><defs><style>.cls-1,.cls-2{fill:none;stroke:#1b3665;stroke-width:2px;}.cls-1{stroke-miterlimit:10;}.cls-2{stroke-linejoin:round;}</style></defs><g id="Layer_2" data-name="Layer 2"><g id="Layer_1-2" data-name="Layer 1"><path class="cls-1" d="M25.93,39.45h0A24.93,24.93,0,0,1,50.87,64.39V84.33a0,0,0,0,1,0,0H1a0,0,0,0,1,0,0V64.39A24.93,24.93,0,0,1,25.93,39.45Z"/><path class="cls-1" d="M39.58,17.68a13.78,13.78,0,0,1,.1,1.71v1.54a15.06,15.06,0,1,1-30.11,0V19.39a16.11,16.11,0,0,1,.16-2.22"/><path class="cls-1" d="M34.85,8.34l-.12-.12"/><path class="cls-1" d="M14.34,9.33c2.5,1.6,8.44,4.79,13.79,2.89,3.59-1.28,5.34-2.55,6.18-3.49a2.43,2.43,0,0,0,.31-.37,1.71,1.71,0,0,1,.11-.14,2,2,0,0,0,.4-1s-10.87-8-18-5.92c-6.3,1.81-3.69,6.32-3.95,7"/><path class="cls-1" d="M34.31,8.73l5.27,9,.27.46a27.35,27.35,0,0,0-.61-7.25c-.63-2.44-3.14-2.62-4.39-2.55l-.23,0"/><path class="cls-2" d="M14.34,9.25l-4.21,8.08h-1a23.64,23.64,0,0,1,.64-6.65c.49-1.75,2.12-2.22,3.41-2.33a.93.93,0,0,0,0,.13s.23.17.64.42C13.93,9,14.12,9.12,14.34,9.25Z"/><path class="cls-1" d="M19.13,27.33c3,3,9,3,11,0"/><polyline class="cls-1" points="25.13 39.33 19.13 49.33 13.74 41.95"/><polyline class="cls-1" points="24.74 39.33 30.74 49.33 36.13 41.95"/></g></g></svg>