<svg xmlns="http://www.w3.org/2000/svg" viewBox="0 0 102.35 85.33"><defs><style>.cls-1,.cls-2{fill:none;stroke:#1b3665;stroke-width:2px;}.cls-1{stroke-miterlimit:10;}.cls-2{stroke-linejoin:round;}</style></defs><g id="Layer_2" data-name="Layer 2"><g id="Layer_1-2" data-name="Layer 1"><path class="cls-1" d="M76.41,39.45h0a24.93,24.93,0,0,1,24.93,24.93V84.33a0,0,0,0,1,0,0H51.48a0,0,0,0,1,0,0V64.39A24.93,24.93,0,0,1,76.41,39.45Z"/><path class="cls-1" d="M46.86,49.28a22.51,22.51,0,0,1,4,12.87V84.33H1V62.15A22.59,22.59,0,0,1,5,49.28"/><rect class="cls-1" x="5" y="2.14" width="41.86" height="70.6" rx="20.93"/><rect class="cls-1" x="13.25" y="15.33" width="25.36" height="33.77" rx="12.68"/><path class="cls-1" d="M90.05,17.68a13.78,13.78,0,0,1,.1,1.71v1.54a15.06,15.06,0,1,1-30.11,0V19.39a16.11,16.11,0,0,1,.16-2.22"/><path class="cls-1" d="M85.32,8.34l-.12-.12"/><path class="cls-1" d="M64.81,9.33c2.5,1.6,8.44,4.79,13.79,2.89,3.59-1.28,5.34-2.55,6.18-3.49a2.43,2.43,0,0,0,.31-.37,1.71,1.71,0,0,1,.11-.14,2,2,0,0,0,.4-1s-10.87-8-18-5.92c-6.3,1.81-3.69,6.32-3.95,7"/><path class="cls-1" d="M84.78,8.73l5.27,9,.27.46a27.35,27.35,0,0,0-.61-7.25c-.63-2.44-3.14-2.62-4.39-2.55l-.23,0"/><path class="cls-2" d="M64.81,9.25,60.6,17.33h-1a23.64,23.64,0,0,1,.64-6.65c.49-1.75,2.12-2.22,3.41-2.33a.93.93,0,0,0,0,.13s.23.17.64.42C64.4,9,64.59,9.12,64.81,9.25Z"/><path class="cls-1" d="M69.6,27.33c3,3,9,3,11,0"/><path class="cls-1" d="M21.65,37.58c2.34,2.34,7,2.34,8.56,0"/><polyline class="cls-1" points="75.6 39.33 69.6 49.33 64.22 41.95"/><polyline class="cls-1" points="75.22 39.33 81.22 49.33 86.6 41.95"/></g></g></svg>